<svg width="36" height="36" viewBox="0 0 36 36" fill="none" xmlns="http://www.w3.org/2000/svg">
<path d="M16.56 25.92C11.376 25.92 7.19995 21.744 7.19995 16.56C7.19995 11.376 11.376 7.2 16.56 7.2C21.744 7.2 25.92 11.376 25.92 16.56C25.92 21.744 21.744 25.92 16.56 25.92ZM16.56 8.64C12.168 8.64 8.63995 12.168 8.63995 16.56C8.63995 20.952 12.168 24.48 16.56 24.48C20.952 24.48 24.4799 20.952 24.4799 16.56C24.4799 12.168 20.952 8.64 16.56 8.64Z" fill="white"/>
<path d="M23.531 22.5122L29.9966 28.9778L28.9785 29.9959L22.5129 23.5303L23.531 22.5122Z" fill="white"/>
</svg>
